<mxfile host="Electron" agent="Mozilla/5.0 (Windows NT 10.0; Win64; x64) AppleWebKit/537.36 (KHTML, like Gecko) draw.io/24.7.5 Chrome/126.0.6478.183 Electron/31.3.0 Safari/537.36" version="24.7.5">
  <diagram name="Página-1" id="h_FodJVWSmw83xyll86N">
    <mxGraphModel dx="750" dy="512" grid="1" gridSize="10" guides="1" tooltips="1" connect="1" arrows="1" fold="1" page="1" pageScale="1" pageWidth="827" pageHeight="1169" math="0" shadow="0">
      <root>
        <mxCell id="0" />
        <mxCell id="1" parent="0" />
        <mxCell id="wyPlaoNFKpnywbPhth9S-4" value="" style="edgeStyle=orthogonalEdgeStyle;rounded=0;orthogonalLoop=1;jettySize=auto;html=1;entryX=0;entryY=0.5;entryDx=0;entryDy=0;entryPerimeter=0;flowAnimation=1;" edge="1" parent="1" source="wyPlaoNFKpnywbPhth9S-1" target="wyPlaoNFKpnywbPhth9S-5">
          <mxGeometry relative="1" as="geometry">
            <mxPoint x="500" y="110" as="targetPoint" />
          </mxGeometry>
        </mxCell>
        <mxCell id="wyPlaoNFKpnywbPhth9S-7" value="" style="edgeStyle=orthogonalEdgeStyle;rounded=0;orthogonalLoop=1;jettySize=auto;html=1;flowAnimation=1;" edge="1" parent="1" source="wyPlaoNFKpnywbPhth9S-1" target="wyPlaoNFKpnywbPhth9S-6">
          <mxGeometry relative="1" as="geometry">
            <Array as="points">
              <mxPoint x="360" y="150" />
              <mxPoint x="260" y="150" />
            </Array>
          </mxGeometry>
        </mxCell>
        <mxCell id="wyPlaoNFKpnywbPhth9S-1" value="Sistema de Información" style="rounded=1;whiteSpace=wrap;html=1;fillColor=#dae8fc;strokeColor=#6c8ebf;" vertex="1" parent="1">
          <mxGeometry x="300" y="80" width="120" height="60" as="geometry" />
        </mxCell>
        <mxCell id="wyPlaoNFKpnywbPhth9S-5" value="BD" style="shape=cylinder3;whiteSpace=wrap;html=1;boundedLbl=1;backgroundOutline=1;size=15;" vertex="1" parent="1">
          <mxGeometry x="510" y="70" width="60" height="80" as="geometry" />
        </mxCell>
        <mxCell id="wyPlaoNFKpnywbPhth9S-9" value="" style="edgeStyle=orthogonalEdgeStyle;rounded=0;orthogonalLoop=1;jettySize=auto;html=1;flowAnimation=1;" edge="1" parent="1" source="wyPlaoNFKpnywbPhth9S-6" target="wyPlaoNFKpnywbPhth9S-8">
          <mxGeometry relative="1" as="geometry" />
        </mxCell>
        <mxCell id="wyPlaoNFKpnywbPhth9S-6" value="Monolítico" style="rounded=1;whiteSpace=wrap;html=1;fillColor=#dae8fc;strokeColor=#6c8ebf;" vertex="1" parent="1">
          <mxGeometry x="200" y="180" width="120" height="60" as="geometry" />
        </mxCell>
        <mxCell id="wyPlaoNFKpnywbPhth9S-10" style="edgeStyle=orthogonalEdgeStyle;rounded=0;orthogonalLoop=1;jettySize=auto;html=1;exitX=0.75;exitY=0;exitDx=0;exitDy=0;entryX=0.75;entryY=1;entryDx=0;entryDy=0;flowAnimation=1;" edge="1" parent="1" source="wyPlaoNFKpnywbPhth9S-8" target="wyPlaoNFKpnywbPhth9S-6">
          <mxGeometry relative="1" as="geometry" />
        </mxCell>
        <mxCell id="wyPlaoNFKpnywbPhth9S-8" value="Kotlin&lt;div&gt;Layout&lt;/div&gt;" style="rounded=1;whiteSpace=wrap;html=1;fillColor=#dae8fc;strokeColor=#6c8ebf;align=center;" vertex="1" parent="1">
          <mxGeometry x="200" y="320" width="120" height="60" as="geometry" />
        </mxCell>
        <mxCell id="wyPlaoNFKpnywbPhth9S-11" style="edgeStyle=orthogonalEdgeStyle;rounded=0;orthogonalLoop=1;jettySize=auto;html=1;exitX=0.75;exitY=0;exitDx=0;exitDy=0;entryX=0.662;entryY=1.059;entryDx=0;entryDy=0;entryPerimeter=0;flowAnimation=1;" edge="1" parent="1" source="wyPlaoNFKpnywbPhth9S-6" target="wyPlaoNFKpnywbPhth9S-1">
          <mxGeometry relative="1" as="geometry" />
        </mxCell>
        <mxCell id="wyPlaoNFKpnywbPhth9S-12" style="edgeStyle=orthogonalEdgeStyle;rounded=0;orthogonalLoop=1;jettySize=auto;html=1;exitX=0;exitY=0;exitDx=0;exitDy=52.5;exitPerimeter=0;entryX=1;entryY=0.75;entryDx=0;entryDy=0;flowAnimation=1;" edge="1" parent="1" source="wyPlaoNFKpnywbPhth9S-5" target="wyPlaoNFKpnywbPhth9S-1">
          <mxGeometry relative="1" as="geometry" />
        </mxCell>
        <mxCell id="wyPlaoNFKpnywbPhth9S-13" value="" style="outlineConnect=0;dashed=0;verticalLabelPosition=bottom;verticalAlign=top;align=center;html=1;shape=mxgraph.aws3.mobile_client;fillColor=#D2D3D3;gradientColor=none;" vertex="1" parent="1">
          <mxGeometry x="330" y="320" width="40.5" height="63" as="geometry" />
        </mxCell>
        <mxCell id="wyPlaoNFKpnywbPhth9S-14" value="SQLite" style="shape=cylinder3;whiteSpace=wrap;html=1;boundedLbl=1;backgroundOutline=1;size=15;" vertex="1" parent="1">
          <mxGeometry x="201" y="325" width="40" height="50" as="geometry" />
        </mxCell>
        <mxCell id="wyPlaoNFKpnywbPhth9S-20" style="edgeStyle=orthogonalEdgeStyle;rounded=0;orthogonalLoop=1;jettySize=auto;html=1;" edge="1" parent="1" source="wyPlaoNFKpnywbPhth9S-15" target="wyPlaoNFKpnywbPhth9S-21">
          <mxGeometry relative="1" as="geometry">
            <mxPoint x="460" y="319.9999999999999" as="targetPoint" />
          </mxGeometry>
        </mxCell>
        <mxCell id="wyPlaoNFKpnywbPhth9S-37" style="edgeStyle=orthogonalEdgeStyle;rounded=0;orthogonalLoop=1;jettySize=auto;html=1;exitX=1;exitY=1;exitDx=0;exitDy=0;entryX=0;entryY=0.5;entryDx=0;entryDy=0;flowAnimation=1;" edge="1" parent="1" source="wyPlaoNFKpnywbPhth9S-15" target="wyPlaoNFKpnywbPhth9S-36">
          <mxGeometry relative="1" as="geometry" />
        </mxCell>
        <mxCell id="wyPlaoNFKpnywbPhth9S-15" value="Servicios Rest" style="whiteSpace=wrap;html=1;fillColor=#d5e8d4;strokeColor=#82b366;rounded=1;" vertex="1" parent="1">
          <mxGeometry x="430" y="190" width="120" height="60" as="geometry" />
        </mxCell>
        <mxCell id="wyPlaoNFKpnywbPhth9S-17" style="edgeStyle=orthogonalEdgeStyle;rounded=0;orthogonalLoop=1;jettySize=auto;html=1;exitX=1;exitY=1;exitDx=0;exitDy=0;entryX=0.283;entryY=0.034;entryDx=0;entryDy=0;entryPerimeter=0;flowAnimation=1;" edge="1" parent="1" source="wyPlaoNFKpnywbPhth9S-1" target="wyPlaoNFKpnywbPhth9S-15">
          <mxGeometry relative="1" as="geometry" />
        </mxCell>
        <mxCell id="wyPlaoNFKpnywbPhth9S-18" style="edgeStyle=orthogonalEdgeStyle;rounded=0;orthogonalLoop=1;jettySize=auto;html=1;entryX=0.833;entryY=1;entryDx=0;entryDy=0;entryPerimeter=0;flowAnimation=1;" edge="1" parent="1" source="wyPlaoNFKpnywbPhth9S-15" target="wyPlaoNFKpnywbPhth9S-1">
          <mxGeometry relative="1" as="geometry" />
        </mxCell>
        <mxCell id="wyPlaoNFKpnywbPhth9S-19" value="MySQL" style="shape=cylinder3;whiteSpace=wrap;html=1;boundedLbl=1;backgroundOutline=1;size=15;" vertex="1" parent="1">
          <mxGeometry x="400" y="340" width="60" height="80" as="geometry" />
        </mxCell>
        <mxCell id="wyPlaoNFKpnywbPhth9S-22" style="edgeStyle=orthogonalEdgeStyle;rounded=0;orthogonalLoop=1;jettySize=auto;html=1;flowAnimation=1;" edge="1" parent="1" source="wyPlaoNFKpnywbPhth9S-21" target="wyPlaoNFKpnywbPhth9S-19">
          <mxGeometry relative="1" as="geometry" />
        </mxCell>
        <mxCell id="wyPlaoNFKpnywbPhth9S-24" style="edgeStyle=orthogonalEdgeStyle;rounded=0;orthogonalLoop=1;jettySize=auto;html=1;flowAnimation=1;" edge="1" parent="1" source="wyPlaoNFKpnywbPhth9S-21" target="wyPlaoNFKpnywbPhth9S-23">
          <mxGeometry relative="1" as="geometry" />
        </mxCell>
        <mxCell id="wyPlaoNFKpnywbPhth9S-21" value="Backend" style="rounded=0;whiteSpace=wrap;html=1;fillColor=#f8cecc;strokeColor=#b85450;" vertex="1" parent="1">
          <mxGeometry x="430" y="280" width="90" height="30" as="geometry" />
        </mxCell>
        <mxCell id="wyPlaoNFKpnywbPhth9S-23" value="MongoDB" style="shape=cylinder3;whiteSpace=wrap;html=1;boundedLbl=1;backgroundOutline=1;size=15;" vertex="1" parent="1">
          <mxGeometry x="490" y="340" width="60" height="80" as="geometry" />
        </mxCell>
        <mxCell id="wyPlaoNFKpnywbPhth9S-25" value="" style="html=1;verticalLabelPosition=bottom;align=center;labelBackgroundColor=#ffffff;verticalAlign=top;strokeWidth=2;strokeColor=#0080F0;shadow=0;dashed=0;shape=mxgraph.ios7.icons.smartphone;" vertex="1" parent="1">
          <mxGeometry x="665" y="200" width="40" height="70" as="geometry" />
        </mxCell>
        <mxCell id="wyPlaoNFKpnywbPhth9S-26" value="Kotlin&lt;div&gt;Layout&lt;/div&gt;" style="rounded=1;whiteSpace=wrap;html=1;fillColor=#dae8fc;strokeColor=#6c8ebf;align=center;" vertex="1" parent="1">
          <mxGeometry x="650" y="130" width="70" height="40" as="geometry" />
        </mxCell>
        <mxCell id="wyPlaoNFKpnywbPhth9S-27" value="IONIC" style="rounded=1;whiteSpace=wrap;html=1;fillColor=#dae8fc;strokeColor=#6c8ebf;align=center;" vertex="1" parent="1">
          <mxGeometry x="740" y="130" width="70" height="40" as="geometry" />
        </mxCell>
        <mxCell id="wyPlaoNFKpnywbPhth9S-28" value="Flutter" style="rounded=1;whiteSpace=wrap;html=1;fillColor=#dae8fc;strokeColor=#6c8ebf;align=center;" vertex="1" parent="1">
          <mxGeometry x="740" y="180" width="70" height="40" as="geometry" />
        </mxCell>
        <mxCell id="wyPlaoNFKpnywbPhth9S-29" value="React Native" style="rounded=1;whiteSpace=wrap;html=1;fillColor=#dae8fc;strokeColor=#6c8ebf;align=center;" vertex="1" parent="1">
          <mxGeometry x="740" y="230" width="70" height="40" as="geometry" />
        </mxCell>
        <mxCell id="wyPlaoNFKpnywbPhth9S-30" value="Switch" style="rounded=1;whiteSpace=wrap;html=1;fillColor=#dae8fc;strokeColor=#6c8ebf;align=center;" vertex="1" parent="1">
          <mxGeometry x="740" y="280" width="70" height="40" as="geometry" />
        </mxCell>
        <mxCell id="wyPlaoNFKpnywbPhth9S-31" value="" style="image;points=[];aspect=fixed;html=1;align=center;shadow=0;dashed=0;image=img/lib/allied_telesis/computer_and_terminals/Personal_Computer_Wireless.svg;" vertex="1" parent="1">
          <mxGeometry x="657" y="380" width="63" height="64.2" as="geometry" />
        </mxCell>
        <mxCell id="wyPlaoNFKpnywbPhth9S-32" value="Wen Native" style="rounded=1;whiteSpace=wrap;html=1;fillColor=#dae8fc;strokeColor=#6c8ebf;align=center;" vertex="1" parent="1">
          <mxGeometry x="740" y="360" width="70" height="40" as="geometry" />
        </mxCell>
        <mxCell id="wyPlaoNFKpnywbPhth9S-33" value="Angular" style="rounded=1;whiteSpace=wrap;html=1;fillColor=#dae8fc;strokeColor=#6c8ebf;align=center;" vertex="1" parent="1">
          <mxGeometry x="740" y="410" width="70" height="40" as="geometry" />
        </mxCell>
        <mxCell id="wyPlaoNFKpnywbPhth9S-34" value="React" style="rounded=1;whiteSpace=wrap;html=1;fillColor=#dae8fc;strokeColor=#6c8ebf;align=center;" vertex="1" parent="1">
          <mxGeometry x="740" y="506" width="70" height="40" as="geometry" />
        </mxCell>
        <mxCell id="wyPlaoNFKpnywbPhth9S-35" value="Vue" style="rounded=1;whiteSpace=wrap;html=1;fillColor=#dae8fc;strokeColor=#6c8ebf;align=center;" vertex="1" parent="1">
          <mxGeometry x="740" y="460" width="70" height="40" as="geometry" />
        </mxCell>
        <mxCell id="wyPlaoNFKpnywbPhth9S-36" value="API" style="rhombus;whiteSpace=wrap;html=1;" vertex="1" parent="1">
          <mxGeometry x="585" y="280" width="80" height="80" as="geometry" />
        </mxCell>
        <mxCell id="wyPlaoNFKpnywbPhth9S-38" style="edgeStyle=orthogonalEdgeStyle;rounded=0;orthogonalLoop=1;jettySize=auto;html=1;entryX=0.007;entryY=0.639;entryDx=0;entryDy=0;entryPerimeter=0;flowAnimation=1;" edge="1" parent="1" source="wyPlaoNFKpnywbPhth9S-36" target="wyPlaoNFKpnywbPhth9S-25">
          <mxGeometry relative="1" as="geometry" />
        </mxCell>
        <mxCell id="wyPlaoNFKpnywbPhth9S-39" style="edgeStyle=orthogonalEdgeStyle;rounded=0;orthogonalLoop=1;jettySize=auto;html=1;entryX=-0.006;entryY=0.729;entryDx=0;entryDy=0;entryPerimeter=0;flowAnimation=1;" edge="1" parent="1" source="wyPlaoNFKpnywbPhth9S-36" target="wyPlaoNFKpnywbPhth9S-31">
          <mxGeometry relative="1" as="geometry" />
        </mxCell>
      </root>
    </mxGraphModel>
  </diagram>
</mxfile>
